<?xml version="1.0" standalone="no"?>
<!DOCTYPE svg PUBLIC "-//W3C//DTD SVG 20010904//EN"
 "http://www.w3.org/TR/2001/REC-SVG-20010904/DTD/svg10.dtd">
<svg version="1.0" xmlns="http://www.w3.org/2000/svg"
 width="348.000000pt" height="348.000000pt" viewBox="0 0 348.000000 348.000000"
 preserveAspectRatio="xMidYMid meet">
<metadata>
Created by potrace 1.11, written by Peter Selinger 2001-2013
</metadata>
<g transform="translate(0.000000,348.000000) scale(0.100000,-0.100000)"
fill="#000000" stroke="none">
<path d="M1191 2740 c-91 -60 -171 -120 -179 -133 -9 -14 -12 -34 -9 -49 6
-21 130 -206 406 -605 l71 -103 0 -243 c0 -200 3 -246 15 -264 20 -29 53 -33
95 -11 68 34 294 193 314 221 20 27 21 42 22 291 0 144 4 269 9 277 5 7 104
154 222 326 117 171 218 323 224 337 13 28 -1 56 -27 56 -23 0 -338 -216 -374
-257 -19 -22 -68 -87 -108 -146 -40 -59 -76 -107 -80 -107 -4 1 -83 114 -177
251 -93 138 -178 255 -187 260 -41 22 -74 9 -237 -101z m392 -199 c97 -143
177 -262 177 -265 0 -2 -46 -71 -102 -153 -56 -81 -113 -165 -126 -185 l-25
-37 -22 32 c-271 393 -428 623 -431 632 -3 6 3 18 13 27 41 36 306 208 321
208 11 0 83 -97 195 -259z m710 196 c-4 -7 -99 -146 -210 -308 l-203 -294
-106 -70 c-171 -112 -168 -111 -158 -94 56 94 404 585 428 604 28 24 247 174
254 175 2 0 -1 -6 -5 -13z m-418 -894 c-1 -126 -5 -238 -9 -251 -8 -24 -294
-222 -321 -222 -13 0 -15 31 -15 238 l0 237 171 113 c94 61 171 112 173 112 1
0 1 -102 1 -227z"/>
<path d="M2059 932 c-26 -53 -70 -143 -98 -199 l-50 -103 134 0 c132 0 135 0
123 20 -11 16 -26 20 -100 22 l-87 3 63 132 63 132 76 -155 c61 -123 81 -154
97 -154 11 0 20 3 20 6 0 7 -190 394 -193 393 -1 0 -23 -44 -48 -97z"/>
<path d="M760 933 c29 -43 65 -97 81 -120 25 -36 29 -50 29 -113 0 -68 1 -71
22 -68 21 3 23 8 23 69 0 66 1 67 78 182 42 64 77 119 77 122 0 3 -10 5 -22 5
-18 0 -38 -23 -88 -95 -36 -52 -67 -95 -70 -94 -3 0 -32 42 -66 92 -49 74 -66
93 -88 95 -27 3 -27 3 24 -75z"/>
<path d="M1143 820 l0 -190 117 0 c64 0 131 5 149 11 55 19 79 102 45 154 -14
22 -14 26 0 47 19 26 21 80 5 111 -26 51 -45 57 -185 57 l-132 0 1 -190z m261
134 c9 -8 17 -20 17 -25 1 -5 2 -15 3 -21 1 -7 -4 -25 -11 -40 -11 -24 -20
-28 -53 -28 -33 0 -40 -3 -40 -20 0 -17 7 -20 40 -20 49 0 74 -30 64 -77 -9
-45 -36 -54 -144 -51 l-95 3 -1 135 c0 74 2 141 4 148 7 19 196 17 216 -4z"/>
<path d="M1550 819 l0 -192 108 5 c86 4 114 9 142 26 81 49 114 135 85 223
-31 93 -98 129 -240 129 l-95 0 0 -191z m218 137 c75 -39 105 -118 73 -190
-29 -66 -69 -89 -166 -94 l-81 -4 0 151 -1 151 74 0 c44 0 85 -6 101 -14z"/>
<path d="M2433 994 c-126 -62 -149 -213 -48 -311 167 -160 418 81 268 257 -20
23 -52 49 -70 56 -43 18 -110 17 -150 -2z m149 -46 c43 -25 78 -80 78 -124 0
-15 -9 -46 -20 -69 -63 -130 -257 -95 -277 50 -10 78 66 164 146 165 18 0 51
-10 73 -22z"/>
</g>
</svg>
